<?xml version="1.0" encoding="UTF-8" standalone="no"?>
<svg
   xmlns:dc="http://purl.org/dc/elements/1.1/"
   xmlns:cc="http://creativecommons.org/ns#"
   xmlns:rdf="http://www.w3.org/1999/02/22-rdf-syntax-ns#"
   xmlns:svg="http://www.w3.org/2000/svg"
   xmlns="http://www.w3.org/2000/svg"
   xmlns:sodipodi="http://sodipodi.sourceforge.net/DTD/sodipodi-0.dtd"
   xmlns:inkscape="http://www.inkscape.org/namespaces/inkscape"
   width="68.064"
   height="68.064"
   id="svg3336"
   version="1.1"
   inkscape:version="0.91 r13725"
   sodipodi:docname="icon.svg">
  <defs
     id="defs3344" />
  <sodipodi:namedview
     pagecolor="#ffffff"
     bordercolor="#666666"
     borderopacity="1"
     objecttolerance="10"
     gridtolerance="10"
     guidetolerance="10"
     inkscape:pageopacity="0"
     inkscape:pageshadow="2"
     inkscape:window-width="1600"
     inkscape:window-height="837"
     id="namedview3342"
     showgrid="false"
     inkscape:zoom="1"
     inkscape:cx="34.032001"
     inkscape:cy="-29.02273"
     inkscape:window-x="-8"
     inkscape:window-y="-8"
     inkscape:window-maximized="1"
     inkscape:current-layer="svg3336" />
  <metadata
     id="metadata3338">
    <rdf:RDF>
      <cc:Work>
        <dc:subject>
                    Compute
                </dc:subject>
        <dc:identifier>
                    websites
                </dc:identifier>
        <dc:title>
                    Websites
                </dc:title>
        <dc:format>
                    image/svg+xml
                </dc:format>
        <dc:publisher>
                    Amido Limited
                </dc:publisher>
        <dc:creator>
                    Richard Slater
                </dc:creator>
        <dc:type
           rdf:resource="http://purl.org/dc/dcmitype/StillImage" />
      </cc:Work>
    </rdf:RDF>
  </metadata>
  <path
     d="m 410.93432,324.42596 c -18.79523,0 -34.03178,15.2366 -34.03178,34.0318 0,18.7953 15.23655,34.0318 34.03178,34.0318 18.79523,0 34.03178,-15.2365 34.03178,-34.0318 0,-18.7952 -15.23655,-34.0318 -34.03178,-34.0318 z m 0,4.0038 c 8.22836,0 15.65838,3.335 21.08218,8.6956 -2.2925,-0.4445 -4.64842,-0.6881 -7.0691,-0.6881 -0.65645,0 -1.29102,-0.034 -1.93931,0 -5.07362,0.2639 -9.90353,1.5774 -14.26332,3.6909 -3.0054,-3.0263 -5.95314,-6.2441 -8.88329,-9.5714 3.42421,-1.3581 7.16515,-2.127 11.07284,-2.127 z m -15.51449,4.3165 c 2.88754,3.5092 5.88948,6.7767 8.94585,9.9468 -3.22457,2.1437 -6.11513,4.7411 -8.5705,7.7572 -0.2955,-0.026 -0.5735,0 -0.87582,0 -0.83047,0 -1.60564,0.1222 -2.37722,0.3128 -1.48094,-2.9777 -2.64006,-6.1541 -3.44071,-9.4463 -0.24263,-0.9976 -0.34725,-1.9902 -0.37535,-3.0028 1.95534,-2.1544 4.19085,-4.0537 6.69375,-5.5677 z m 36.59667,7.2568 c 0.9368,0.016 1.82847,0.1593 2.75257,0.3128 3.85106,5.0488 6.19329,11.3019 6.19329,18.1419 0,3.0884 -0.51034,6.0793 -1.37628,8.8833 -1.84351,-1.5051 -3.66531,-3.0469 -5.50515,-4.5667 0.54763,-0.9986 0.87582,-2.0964 0.87582,-3.3156 0,-3.8697 -3.13693,-7.0066 -7.00654,-7.0066 -1.63435,0 -3.12472,0.5634 -4.31653,1.5014 -3.08817,-2.6927 -6.15347,-5.4453 -9.19609,-8.3202 4.90568,-2.7341 10.2584,-4.6708 15.82728,-5.5052 0.58008,-0.087 1.17251,-0.1345 1.75163,-0.1251 z m -46.73113,2.8777 c 0.37234,2.4024 0.92538,5.6885 1.06349,6.1307 0.45076,1.4432 0.95153,2.8561 1.56396,4.254 -1.84811,1.816 -3.0028,4.3985 -3.0028,7.1942 0,2.7159 1.12168,5.1407 2.87768,6.944 -0.53504,2.6082 -0.87582,5.3002 -0.87582,8.07 0,0.3118 -0.008,0.6284 0,0.9384 -3.75572,-5.0134 -6.0056,-11.2081 -6.0056,-17.9543 0,-5.7104 1.6118,-11.0319 4.37909,-15.577 z m 24.77313,5.5051 c 3.59512,3.4403 7.28686,6.7005 11.01028,9.8843 -0.0645,0.3818 -0.12512,0.7883 -0.12512,1.1886 0,3.8696 3.13693,7.0065 7.00655,7.0065 0.82747,0 1.64027,-0.1746 2.37722,-0.4379 2.44526,1.9839 4.9266,3.9783 7.38189,5.943 -0.53766,1.0644 -1.09564,2.0784 -1.75164,3.0654 -1.63769,0.2812 -3.3281,0.5226 -3.94118,0.563 -3.44457,0.2269 -6.90336,-0.1541 -10.25958,-0.9383 -0.40047,-3.4892 -3.34754,-6.1933 -6.94398,-6.1933 -1.68555,0 -3.23282,0.5722 -4.44165,1.5639 -2.35057,-1.3976 -4.60041,-3.0449 -6.69375,-4.8795 0.76207,-1.4124 1.25117,-2.9745 1.25117,-4.6919 0,-2.2769 -0.78391,-4.3864 -2.06443,-6.0682 2.17053,-2.2216 4.61481,-4.2004 7.19422,-6.0056 z m -10.44726,20.832 c 2.51886,2.2283 5.31248,4.1369 8.25771,5.7553 -0.012,0.1658 -0.0625,0.3317 -0.0625,0.5005 0,3.8696 3.13693,7.0066 7.00655,7.0066 2.37063,0 4.48751,-1.201 5.75537,-3.0029 2.92623,0.4984 5.96079,0.6684 9.00841,0.438 0.91708,-0.069 1.80277,-0.1886 2.69002,-0.3754 -5.44357,5.5077 -12.97676,8.9459 -21.33242,8.9459 -7.22423,0 -13.83699,-2.5684 -19.01776,-6.8189 -0.53088,-1.2947 -1.05915,-2.6194 -1.00094,-3.1905 0.28501,-2.7964 0.98246,-5.5772 1.93931,-8.2577 0.67005,0.1413 1.35231,0.2502 2.06443,0.2502 1.7123,0 3.28251,-0.4933 4.69188,-1.2511 z"
     fill="#00bcf2"
     transform="translate(-376.903 -324.426)"
     id="path3340" />
  <g
     inkscape:groupmode="layer"
     id="layer1"
     inkscape:label="Layer 1">
    <path
       inkscape:connector-curvature="0"
       style="fill:#008000"
       d="m 37.8056,62.749474 0,-13.713354 q 0,-0.493409 0.385998,-0.842197 0.385999,-0.348789 0.932047,-0.348789 l 1.751114,0 0,-5.172283 q 0,-1.888563 0.771997,-3.615494 0.771999,-1.726929 2.165359,-3.054028 1.393361,-1.344112 3.276279,-2.084226 1.882922,-0.740113 4.010622,-0.740113 2.108868,0 4.001203,0.74862 1.892333,0.74862 3.285697,2.075719 1.374529,1.327099 2.146528,3.054028 0.771997,1.726931 0.771997,3.615494 l 0,5.172283 1.769943,0 q 0.546048,0 0.922633,0.348789 0.376583,0.348788 0.376583,0.842197 l 0,13.713354 q 0,0.238198 -0.08473,0.408338 -0.08473,0.170141 -0.301266,0.306256 -0.216535,0.136112 -0.376586,0.212676 -0.160047,0.07656 -0.536632,0.229689 -0.734338,0.272227 -2.061798,0.63803 -1.327457,0.3658 -4.255397,0.83369 -2.92794,0.467887 -5.677005,0.467887 -5.818221,0 -11.956539,-1.939607 -0.640193,-0.204169 -0.97912,-0.45938 Q 37.8056,63.191842 37.8056,62.749474 Z m 7.945921,-14.90434 10.694986,0 0,-5.172283 q 0,-2.194818 -1.619311,-3.743099 -1.543996,-1.446197 -3.72818,-1.480224 -2.203019,0.01703 -3.747012,1.480224 -1.600483,1.531268 -1.600483,3.743099 l 0,5.172283 z"
       id="path3349" />
  </g>
</svg>
